Coordinates
version=1
nRows=9
nColumns=42
inDegrees=yes

Units are S.I. units (second, meters, Newtons, ...)
Angles are in degrees.

endheader
time	pelvis_tilt	pelvis_list	pelvis_rotation	pelvis_tx	pelvis_ty	pelvis_tz	hip_flexion_r	hip_adduction_r	hip_rotation_r	knee_angle_r	ankle_angle_r	subtalar_angle_r	mtp_angle_r	hip_flexion_l	hip_adduction_l	hip_rotation_l	knee_angle_l	ankle_angle_l	subtalar_angle_l	mtp_angle_l	lumbar_extension	lumbar_bending	lumbar_rotation	arm_flex_r	arm_add_r	arm_rot_r	elbow_flex_r	pro_sup_r	wrist_flex_r	wrist_dev_r	arm_flex_l	arm_add_l	arm_rot_l	elbow_flex_l	pro_sup_l	wrist_flex_l	wrist_dev_l	scapula_weld_r	clavicle_weld_r	scapula_weld_l	clavicle_weld_l
      1.49000000	    -10.43679836	     11.00459215	     12.51351433	      0.42024558	      0.91807494	     -0.11579097	     43.10736626	    -23.66917989	    -14.44686715	    -44.53532339	     10.50713299	      0.00000000	      0.00000000	      6.16170300	     13.77990689	     -9.33369860	    -15.00335424	     12.54557720	      0.00000000	      0.00000000	      0.00000000	      0.00000000	      0.00000000	      0.00000000	    -11.01084960	      0.00000000	     75.31401550	     44.97461163	      0.00000000	      0.00000000	      0.00000000	    -11.01084960	      0.00000000	     75.31401550	     44.97461163	      0.00000000	      0.00000000	      0.00000000	      0.00000000	      0.00000000	      0.00000000
      1.50000000	    -10.57905476	     11.32172285	     12.58535400	      0.43221266	      0.91590861	     -0.11603314	     43.70438137	    -23.60086287	    -14.57510395	    -41.76679089	     10.68075562	      0.00000000	      0.00000000	      5.44027823	     14.00249520	     -9.10170519	    -15.10167122	     13.11395411	      0.00000000	      0.00000000	      0.00000000	      0.00000000	      0.00000000	      0.00000000	    -11.01452428	      0.00000000	     75.31345002	     44.97473846	      0.00000000	      0.00000000	      0.00000000	    -11.01452428	      0.00000000	     75.31345002	     44.97473846	      0.00000000	      0.00000000	      0.00000000	      0.00000000	      0.00000000	      0.00000000
      1.51000000	    -10.82031344	     11.62542051	     12.61489175	      0.44410867	      0.91353493	     -0.11607329	     44.35087325	    -23.45384724	    -14.65471672	    -38.90133391	     10.80375596	      0.00000000	      0.00000000	      4.87424031	     14.20749806	     -8.89626827	    -15.26615764	     13.64237762	      0.00000000	      0.00000000	      0.00000000	      0.00000000	      0.00000000	      0.00000000	    -11.01751011	      0.00000000	     75.31299091	     44.97484114	      0.00000000	      0.00000000	      0.00000000	    -11.01751011	      0.00000000	     75.31299091	     44.97484114	      0.00000000	      0.00000000	      0.00000000	      0.00000000	      0.00000000	      0.00000000
      1.52000000	    -11.15525079	     11.89651174	     12.64396582	      0.45586838	      0.91099638	     -0.11593320	     45.00800967	    -23.22842569	    -14.70359864	    -35.92291926	     10.86170540	      0.00000000	      0.00000000	      4.48874513	     14.36869339	     -8.71932667	    -15.54750315	     14.12464871	      0.00000000	      0.00000000	      0.00000000	      0.00000000	      0.00000000	      0.00000000	    -11.02023598	      0.00000000	     75.31257206	     44.97493459	      0.00000000	      0.00000000	      0.00000000	    -11.02023598	      0.00000000	     75.31257206	     44.97493459	      0.00000000	      0.00000000	      0.00000000	      0.00000000	      0.00000000	      0.00000000
      1.53000000	    -11.85387190	     11.88203671	     12.82683933	      0.46744891	      0.90803191	     -0.11557182	     45.84874335	    -22.81178980	    -14.97282439	    -32.76436249	     10.73730504	      0.00000000	      0.00000000	      4.77508757	     14.21922628	     -8.80760555	    -16.28701701	     14.71337964	      0.00000000	      0.00000000	      0.00000000	      0.00000000	      0.00000000	      0.00000000	    -11.03111799	      0.00000000	     75.31090255	     44.97530483	      0.00000000	      0.00000000	      0.00000000	    -11.03111799	      0.00000000	     75.31090255	     44.97530483	      0.00000000	      0.00000000	      0.00000000	      0.00000000	      0.00000000	      0.00000000
      1.54000000	    -12.42925972	     12.03674039	     12.89122349	      0.47917148	      0.90516937	     -0.11507502	     46.54758696	    -22.41384280	    -14.95157818	    -29.65919531	     10.62624753	      0.00000000	      0.00000000	      4.83030263	     14.23860917	     -8.78668816	    -16.86166229	     15.11259504	      0.00000000	      0.00000000	      0.00000000	      0.00000000	      0.00000000	      0.00000000	    -11.03709675	      0.00000000	     75.30998715	     44.97550636	      0.00000000	      0.00000000	      0.00000000	    -11.03709675	      0.00000000	     75.30998715	     44.97550636	      0.00000000	      0.00000000	      0.00000000	      0.00000000	      0.00000000	      0.00000000
      1.55000000	    -13.22213291	     12.01315025	     13.07412487	      0.49084270	      0.90202474	     -0.11442705	     47.32649122	    -21.89714442	    -14.92966763	    -26.53121315	     10.43945501	      0.00000000	      0.00000000	      5.30689244	     14.05544339	     -8.88181236	    -17.77204288	     15.56059624	      0.00000000	      0.00000000	      0.00000000	      0.00000000	      0.00000000	      0.00000000	    -11.04687287	      0.00000000	     75.30849327	     44.97583289	      0.00000000	      0.00000000	      0.00000000	    -11.04687287	      0.00000000	     75.30849327	     44.97583289	      0.00000000	      0.00000000	      0.00000000	      0.00000000	      0.00000000	      0.00000000
      1.56000000	    -13.68839798	     12.24672784	     13.14311000	      0.50288304	      0.89928387	     -0.11381565	     47.77090783	    -21.51940516	    -14.59169773	    -23.69065106	     10.39763678	      0.00000000	      0.00000000	      5.22931831	     14.12826595	     -8.68797746	    -18.37629346	     15.76727852	      0.00000000	      0.00000000	      0.00000000	      0.00000000	      0.00000000	      0.00000000	    -11.04939554	      0.00000000	     75.30810836	     44.97591658	      0.00000000	      0.00000000	      0.00000000	    -11.04939554	      0.00000000	     75.30810836	     44.97591658	      0.00000000	      0.00000000	      0.00000000	      0.00000000	      0.00000000	      0.00000000
      1.57000000	    -14.42096583	     12.05668689	     13.30603778	      0.51529406	      0.89626178	     -0.11299634	     48.30127433	    -20.85734961	    -14.49968781	    -20.94005566	     10.04647169	      0.00000000	      0.00000000	      5.69028723	     13.70436623	     -8.89220048	    -19.38250205	     16.10264698	      0.00000000	      0.00000000	      0.00000000	      0.00000000	      0.00000000	      0.00000000	    -11.05514629	      0.00000000	     75.30723176	     44.97610648	      0.00000000	      0.00000000	      0.00000000	    -11.05514629	      0.00000000	     75.30723176	     44.97610648	      0.00000000	      0.00000000	      0.00000000	      0.00000000	      0.00000000	      0.00000000
